<svg width="30" height="26" viewBox="0 0 30 26" fill="none" xmlns="http://www.w3.org/2000/svg">
<path d="M13.2557 25.2939L3.89205 16.2275C3.48864 15.8577 0 12.5573 0 8.44998C0 3.36766 3.22728 0 8.63637 0C10.9886 0 13.2159 1.27758 15 2.79051C16.7784 1.27758 19.0113 0 21.3636 0C26.5739 0 30 3.16594 30 8.44998C30 11.3638 28.1932 14.2495 26.1307 16.2219L26.108 16.2444L16.7444 25.2939C16.2796 25.7463 15.653 26 15 26C14.347 26 13.7204 25.7463 13.2557 25.2939ZM5.78977 14.2944L15 23.2149L24.1932 14.3224C25.7443 12.8095 27.2727 10.6073 27.2727 8.44998C27.2727 4.70128 25.1022 2.68965 21.3636 2.68965C18.6818 2.68965 16.091 5.45214 15 6.52239C14.0341 5.56981 11.3636 2.68965 8.63637 2.68965C4.89204 2.68965 2.72727 4.70128 2.72727 8.44998C2.72727 10.5401 4.24432 12.8711 5.78977 14.2944Z" fill="#BA0000"/>
</svg>
