<svg width="20" height="18" viewBox="0 0 20 18" fill="none" xmlns="http://www.w3.org/2000/svg">
<g clip-path="url(#clip0_1_314)">
<path d="M8.83712 16.7883L2.5947 10.8603C2.32576 10.6185 0 8.46056 0 5.775C0 2.45194 2.15152 0.25 5.75758 0.25C7.32576 0.25 8.81061 1.08534 10 2.07457C11.1856 1.08534 12.6742 0.25 14.2424 0.25C17.7159 0.25 20 2.32004 20 5.775C20 7.68017 18.7955 9.56702 17.4205 10.8566L17.4053 10.8713L11.1629 16.7883C10.8531 17.0841 10.4353 17.25 10 17.25C9.5647 17.25 9.14691 17.0841 8.83712 16.7883ZM3.85985 9.59633L10 15.429L16.1288 9.61465C17.1629 8.62543 18.1818 7.18556 18.1818 5.775C18.1818 3.32392 16.7348 2.00862 14.2424 2.00862C12.4545 2.00862 10.7273 3.81487 10 4.51465C9.35606 3.89181 7.57576 2.00862 5.75758 2.00862C3.26136 2.00862 1.81818 3.32392 1.81818 5.775C1.81818 7.14159 2.82955 8.66573 3.85985 9.59633Z" fill="#EEF2F5"/>
</g>
<defs>
<clipPath id="clip0_1_314">
<rect width="20" height="17" fill="white" transform="translate(0 0.25)"/>
</clipPath>
</defs>
</svg>
