<svg width="15" height="23" viewBox="0 0 15 23" fill="none" xmlns="http://www.w3.org/2000/svg">
<path d="M12.3125 0.5H2.6875C1.52734 0.5 0.625 1.44531 0.625 2.5625V20.4375C0.625 21.5977 1.52734 22.5 2.6875 22.5H12.3125C13.4297 22.5 14.375 21.5977 14.375 20.4375V2.5625C14.375 1.44531 13.4297 0.5 12.3125 0.5ZM7.5 21.125C6.72656 21.125 6.125 20.5234 6.125 19.75C6.125 19.0195 6.72656 18.375 7.5 18.375C8.23047 18.375 8.875 19.0195 8.875 19.75C8.875 20.5234 8.23047 21.125 7.5 21.125ZM12.3125 16.4844C12.3125 16.7852 12.0547 17 11.7969 17H3.20312C2.90234 17 2.6875 16.7852 2.6875 16.4844V3.07812C2.6875 2.82031 2.90234 2.5625 3.20312 2.5625H11.7969C12.0547 2.5625 12.3125 2.82031 12.3125 3.07812V16.4844Z" fill="#BA0000"/>
</svg>
