<svg width="16" height="15" viewBox="0 0 16 15" fill="none" xmlns="http://www.w3.org/2000/svg">
<path d="M8 0.109375C3.98633 0.109375 0.734375 3.36133 0.734375 7.375C0.734375 11.3887 3.98633 14.6406 8 14.6406C12.0137 14.6406 15.2656 11.3887 15.2656 7.375C15.2656 3.36133 12.0137 0.109375 8 0.109375ZM8 13.2344C4.74805 13.2344 2.14062 10.627 2.14062 7.375C2.14062 4.15234 4.74805 1.51562 8 1.51562C11.2227 1.51562 13.8594 4.15234 13.8594 7.375C13.8594 10.627 11.2227 13.2344 8 13.2344ZM9.78711 10.1875C9.96289 10.3047 10.168 10.2754 10.2852 10.0996L10.8418 9.36719C10.959 9.19141 10.9297 8.98633 10.7539 8.86914L8.82031 7.43359V3.27344C8.82031 3.09766 8.64453 2.92188 8.46875 2.92188H7.53125C7.32617 2.92188 7.17969 3.09766 7.17969 3.27344V8.10742C7.17969 8.19531 7.20898 8.3125 7.29688 8.37109L9.78711 10.1875Z" fill="#BA0000"/>
</svg>
